# xmcd
#
# Track frame offsets:
#	150
#	12545
#	24300
#	37140
#	49475
#	63892
#	76685
#	89530
#	102535
#	115195
#	127147
#	138330
#	151242
#	162172
#	174362
#	186690
#	199527
#	212022
#	222655
#	233662
#	244037
#	254770
#	266155
#	277692
#	289362
#	303267
#	314975
#	326660
#	339130
#
# Disc length: 4712 seconds
#
# Revision: 2
# Processed by: cddbd v1.5.2PL0 Copyright (c) Steve Scherf et al.
# Submitted via: EZCDAudioConverter 1.0.8.1
#
DISCID=b812661d
DTITLE=Slim Whitman - Rose Marie - Disc 2 of 6
DYEAR=1900
DGENRE=Country
TTITLE0=There's A Rainbow In Every Teardrop
TTITLE1=I'm Casting My Lasso Towards The Sky
TTITLE2=Restless Heart
TTITLE3=There's A Rainbow In Every Teardrop
TTITLE4=Danny Boy
TTITLE5=North Wind
TTITLE6=Darlin' Don't Cry
TTITLE7=Stairway To Heaven
TTITLE8=Lord, Help Me Be As Thou
TTITLE9=Warm, Warm Lips
TTITLE10=Ride Away
TTITLE11=Secret Love
TTITLE12=Why
TTITLE13=We Stood At The Altar
TTITLE14=There's A Loveknot In My Lariat
TTITLE15=Too Late Now
TTITLE16=I Leave the Milky Way
TTITLE17=Rose Marie(1954)
TTITLE18=Heart Full Of Love(1956)
TTITLE19=Cattle Call(1996)
TTITLE20=Beautiful Dreamer(1954)
TTITLE21=Singing Hills(1954)
TTITLE22=Haunted Hungry Heart(1960)
TTITLE23=I Hate to See You Cry(1954)
TTITLE24=You Have My Heart(1956)
TTITLE25=When I Grow Too Old To Dream(1955)
TTITLE26=Cattle Call(1955)
TTITLE27=Song Of The Wild
TTITLE28=I Talk To The Waves(1996)
EXTD=
EXTT0=
EXTT1=
EXTT2=
EXTT3=
EXTT4=
EXTT5=
EXTT6=
EXTT7=
EXTT8=
EXTT9=
EXTT10=
EXTT11=
EXTT12=
EXTT13=
EXTT14=
EXTT15=
EXTT16=
EXTT17=
EXTT18=
EXTT19=
EXTT20=
EXTT21=
EXTT22=
EXTT23=
EXTT24=
EXTT25=
EXTT26=
EXTT27=
EXTT28=
PLAYORDER=
